<?xml version="1.0" encoding="iso-8859-1"?>
<!-- Generator: Adobe Illustrator 19.0.0, SVG Export Plug-In . SVG Version: 6.00 Build 0)  -->
<svg version="1.1" id="Capa_1" xmlns="http://www.w3.org/2000/svg" xmlns:xlink="http://www.w3.org/1999/xlink" x="0px" y="0px"
	 viewBox="0 0 511.999 511.999" style="enable-background:new 0 0 511.999 511.999;" xml:space="preserve">
<g>
	<g>
		<path d="M274.529,201.284H102.046c-8.405,0-15.219,6.814-15.219,15.219s6.814,15.219,15.219,15.219h172.483
			c8.405,0,15.219-6.814,15.219-15.219S282.934,201.284,274.529,201.284z"/>
	</g>
</g>
<g>
	<g>
		<path d="M201.959,363.933h-99.913c-8.405,0-15.219,6.814-15.219,15.219s6.814,15.219,15.219,15.219h99.913
			c8.405,0,15.219-6.814,15.219-15.219S210.364,363.933,201.959,363.933z"/>
	</g>
</g>
<g>
	<g>
		<path d="M475.701,118.172c-24.14-18.592-58.907-14.079-77.498,10.061l-36.416,47.281v-69.803c0-22.833-18.577-41.41-41.41-41.41
			H279.13V48.456c0-8.405-6.814-15.219-15.219-15.219h-25.906V15.219C238.004,6.814,231.189,0,222.784,0h-69.002
			c-8.405,0-15.219,6.814-15.219,15.219v18.018h-25.906c-8.405,0-15.219,6.814-15.219,15.219V64.3H56.189
			c-22.834,0-41.41,18.577-41.41,41.41v364.879c0,22.834,18.577,41.41,41.41,41.41h264.188c22.834,0,41.41-18.577,41.41-41.41
			V356.636L485.762,195.67C504.354,171.53,499.841,136.764,475.701,118.172z M127.875,63.676h25.906
			c8.405,0,15.219-6.814,15.219-15.219V30.439h38.563v18.018c0,8.405,6.814,15.219,15.219,15.219h25.906v31.687H127.875V63.676z
			 M331.348,470.59c0,6.049-4.921,10.971-10.971,10.971H56.189c-6.05,0-10.971-4.922-10.971-10.971V105.711
			c0-6.049,4.922-10.971,10.971-10.971h41.248v15.843c0,8.405,6.814,15.219,15.219,15.219h151.253
			c8.405,0,15.219-6.814,15.219-15.219V94.739h41.248c6.05,0,10.971,4.922,10.971,10.971v109.325l-52.526,68.198
			c-1.363-0.401-2.801-0.624-4.293-0.624H102.046c-8.405,0-15.219,6.814-15.219,15.219s6.814,15.219,15.219,15.219h155.399
			c-0.36,1.414-0.529,2.88-0.47,4.361l2.513,62.357c0.183,4.503,2.35,8.694,5.92,11.445c2.686,2.069,5.958,3.162,9.287,3.162
			c1.097,0,2.201-0.119,3.29-0.36l53.362-11.816V470.59z M326.942,351.995l-37.771,8.365l-1.557-38.654l110.504-143.476
			l39.243,30.402L326.942,351.995z M461.646,177.097l-5.714,7.419l-39.243-30.402l5.628-7.307
			c8.351-10.842,23.969-12.87,34.81-4.519C467.97,150.638,469.998,166.253,461.646,177.097z"/>
	</g>
</g>
<g>
</g>
<g>
</g>
<g>
</g>
<g>
</g>
<g>
</g>
<g>
</g>
<g>
</g>
<g>
</g>
<g>
</g>
<g>
</g>
<g>
</g>
<g>
</g>
<g>
</g>
<g>
</g>
<g>
</g>
</svg>
