<svg height="512.001pt" viewBox="0 0 512.001 512.001" width="512.001pt" xmlns="http://www.w3.org/2000/svg"><path d="m474.5 437c-1.765625 0-3.5.132812-5.203125.367188l-24.332031-24.332032c-.925782-.921875-1.921875-1.734375-2.964844-2.472656v-26.8125c0-4.144531-3.355469-7.5-7.5-7.5s-7.5 3.355469-7.5 7.5v22.699219h-15v-280.539063c0-12.40625 10.09375-22.5 22.5-22.5h55c4.136719 0 7.5 3.363282 7.5 7.5 0 4.136719-3.363281 7.5-7.5 7.5h-47c-8.546875 0-15.5 6.953125-15.5 15.5v217.964844c0 4.144531 3.355469 7.5 7.5 7.5s7.5-3.355469 7.5-7.5v-217.964844c0-.273437.226562-.5.5-.5h47c12.40625 0 22.5-10.09375 22.5-22.5s-10.09375-22.5-22.5-22.5h-55c-19.238281 0-35.128906 14.5625-37.25 33.242188h-8.199219v-77.253906c0-4.140626-3.359375-7.5-7.5-7.5h-83.320312v-22.917969c0-3.921875-3.019531-7.179688-6.929688-7.480469-.132812-.007812-.1875-.027344-.1875-.027344-1.226562-.484375-4.933593-6.472656-13.453125-6.472656-2.15625 0-4.1875.382812-5.984375 1.121094-4.242187 1.703125-6.628906 5.015625-7.453125 5.34375 0 0-.109375.035156-.394531.035156-.289063 0-.394531-.035156-.398437-.035156-1.21875-.480469-4.929688-6.464844-13.441407-6.464844-8.550781 0-12.191406 5.976562-13.4375 6.464844-.003906 0-.109375.035156-.402343.035156-.289063 0-.394532-.035156-.398438-.035156-1.21875-.476563-4.921875-6.464844-13.441406-6.464844-.097656 0-.195313.0117188-.292969.015625-.042969 0-.082031-.0039062-.125-.0039062-8.226563.1835932-11.800781 5.9804692-13.011719 6.4531252 0 0-.109375.035156-.398437.035156-.292969 0-.398438-.035156-.398438-.035156-1.21875-.476563-4.925781-6.464844-13.441406-6.464844-9.035156 0-12.214844 6.5-13.839844 6.5-.242187 0-.367187-.023438-.390625-.035156-1.269531-.519532-4.90625-6.464844-13.441406-6.464844-8.554688 0-12.191406 5.976562-13.441406 6.464844 0 0-.105469.035156-.398438.035156-.289062 0-.398437-.035156-.398437-.035156-1.21875-.480469-4.929688-6.464844-13.429688-6.464844-8.554687 0-12.195312 5.976562-13.441406 6.464844 0 0-.109375.035156-.398437.035156-.292969 0-.398438-.035156-.398438-.035156-1.21875-.476563-4.925781-6.464844-13.441406-6.464844-8.554688 0-12.207032 5.984375-13.441406 6.464844-.019532.007812-.148438.035156-.398438.035156-.242188 0-.367188-.023438-.394531-.035156-1.136719-.46875-4.597657-5.839844-12.074219-6.4140628-4.363281-.3281252-8.074219 3.1210938-8.074219 7.4804688v52.398438h-13.507812c-18.382813 0-33.339844 14.957031-33.339844 33.339843v28.382813h-14.234375c-4.480469 0-8.742188 1.9375-11.683594 5.320312-2.945312 3.378906-4.28125 7.863282-3.667968 12.304688l28.894531 209.011718c2.546875 18.449219 18.519531 32.363282 37.144531 32.363282h307.65625c8.4375 0 16.226562-2.800782 22.5-7.519532v33.316407h-269.332031c-4.144531 0-7.5 3.359375-7.5 7.5 0 4.144531 3.355469 7.5 7.5 7.5h301.390625c1.894531 0 3.832031.730469 5.296875 2.195312l19.546875 19.542969c-4.210938 2.777344-7.832032 6.382812-10.628906 10.582031l-15.132813-15.125c-1.40625-1.40625-3.3125-2.195312-5.300781-2.195312h-333.570313c-1.988281 0-3.898437.789062-5.300781 2.195312l-15.195312 15.195313c-2.789063-4.207032-6.402344-7.820313-10.605469-10.609375l19.585937-19.585938c1.414063-1.414062 3.292969-2.195312 5.296875-2.195312h12.613281c4.144532 0 7.5-3.355469 7.5-7.5 0-4.140625-3.355468-7.5-7.5-7.5h-12.613281c-6.007812 0-11.65625 2.339843-15.902343 6.585937l-24.347657 24.347656c-1.734375-.246093-3.5-.382812-5.300781-.382812-20.679688 0-37.5 16.820312-37.5 37.5s16.820312 37.5 37.5 37.5 37.5-16.820312 37.5-37.5c0-1.796875-.136719-3.5625-.378906-5.292969l17.757812-17.757812h327.355469l17.660156 17.652343c-.253906 1.765626-.394531 3.566407-.394531 5.398438 0 20.679688 16.824219 37.5 37.5 37.5 20.679688 0 37.5-16.820312 37.5-37.5 0-20.675781-16.820312-37.5-37.5-37.5zm-100.449219-315.347656h-23.199219v-69.753906h23.199219zm-38.199219-69.753906v69.753906h-37.621093v-69.753906zm-99.703124-30.398438c9.070312 0 12.21875-6.5 13.839843-6.5.292969 0 .398438.035156.402344.035156 1.21875.476563 4.921875 6.464844 13.4375 6.464844 9.144531 0 12.167969-6.5 13.832031-6.5 1.0625 0 2.289063 2.222656 5.570313 4.234375v102.417969h-18.613281v-89.214844c0-4.144531-3.355469-7.5-7.5-7.5-4.140626 0-7.5 3.355469-7.5 7.5v89.214844h-20.058594v-101.527344c1.773437.804688 3.929687 1.375 6.589844 1.375zm-190.757813 71.769531c0-10.113281 8.226563-18.339843 18.339844-18.339843h13.507812v46.722656h-31.847656zm329.109375 272.382813h-307.65625c-11.175781 0-20.757812-8.347656-22.289062-19.417969l-28.894532-209.011719c-.007812-.0625-.027344-.226562.121094-.398437s.316406-.171875.375-.171875h79.679688c4.140624 0 7.5-3.355469 7.5-7.5 0-4.140625-3.359376-7.5-7.5-7.5h-3.597657v-101.09375c1.558594.570312 3.386719.941406 5.542969.941406 8.554688 0 12.191406-5.976562 13.441406-6.464844 0 0 .105469-.035156.398438-.035156.289062 0 .398437.035156.398437.035156 1.21875.476563 4.921875 6.464844 13.441407 6.464844 8.554687 0 12.191406-5.976562 13.441406-6.464844 0 0 .105468-.035156.398437-.035156.238281 0 .367188.023438.390625.035156 1.273438.523438 4.902344 6.464844 13.4375 6.464844 9.15625 0 12.171875-6.5 13.839844-6.5.292969 0 .398438.035156.398438.035156 1.21875.480469 4.929687 6.464844 13.433593 6.464844 8.546875 0 12.199219-5.964844 13.445313-6.464844 0 0 .109375-.035156.394531-.035156.292969 0 .398437.035156.398437.035156 1.222657.476563 4.925782 6.464844 13.441407 6.464844 2.410156 0 4.410156-.464844 6.082031-1.148438v101.300782h-86.394531c-4.144531 0-7.5 3.359375-7.5 7.5 0 4.144531 3.355469 7.5 7.5 7.5h268.832031v206.5c0 12.40625-10.09375 22.5-22.5 22.5zm-337 131.347656c-12.40625 0-22.5-10.09375-22.5-22.5s10.09375-22.5 22.5-22.5c12.296875 0 22.5 9.996094 22.5 22.5 0 12.40625-10.09375 22.5-22.5 22.5zm437 0c-12.40625 0-22.5-10.09375-22.5-22.5 0-12.347656 10.046875-22.5 22.5-22.5 12.40625 0 22.5 10.09375 22.5 22.5s-10.09375 22.5-22.5 22.5zm0 0"/><path d="m78 167.5c-4.140625 0-7.5 3.355469-7.5 7.5v150c0 4.144531 3.359375 7.5 7.5 7.5s7.5-3.355469 7.5-7.5v-150c0-4.144531-3.359375-7.5-7.5-7.5zm0 0"/><path d="m124 167.5c-4.140625 0-7.5 3.355469-7.5 7.5v150c0 4.144531 3.359375 7.5 7.5 7.5s7.5-3.355469 7.5-7.5v-150c0-4.144531-3.359375-7.5-7.5-7.5zm0 0"/><path d="m170 167.5c-4.140625 0-7.5 3.355469-7.5 7.5v150c0 4.144531 3.359375 7.5 7.5 7.5s7.5-3.355469 7.5-7.5v-150c0-4.144531-3.359375-7.5-7.5-7.5zm0 0"/><path d="m216 167.5c-4.140625 0-7.5 3.355469-7.5 7.5v150c0 4.144531 3.359375 7.5 7.5 7.5s7.5-3.355469 7.5-7.5v-150c0-4.144531-3.359375-7.5-7.5-7.5zm0 0"/><path d="m262 167.5c-4.144531 0-7.5 3.355469-7.5 7.5v150c0 4.144531 3.355469 7.5 7.5 7.5s7.5-3.355469 7.5-7.5v-150c0-4.144531-3.355469-7.5-7.5-7.5zm0 0"/><path d="m308 167.5c-4.144531 0-7.5 3.355469-7.5 7.5v150c0 4.144531 3.355469 7.5 7.5 7.5s7.5-3.355469 7.5-7.5v-150c0-4.144531-3.355469-7.5-7.5-7.5zm0 0"/><path d="m354 167.5c-4.144531 0-7.5 3.355469-7.5 7.5v150c0 4.144531 3.355469 7.5 7.5 7.5s7.5-3.355469 7.5-7.5v-150c0-4.144531-3.355469-7.5-7.5-7.5zm0 0"/></svg>